<svg xmlns="http://www.w3.org/2000/svg"  viewBox="0 0 64 64" width="64px" height="64px"><linearGradient id="Q18ZPihRMbck6weVbYCZRa" x1="32" x2="32" y1="14" y2="49" gradientUnits="userSpaceOnUse" spreadMethod="reflect"><stop offset="0" stop-color="#6dc7ff"/><stop offset="1" stop-color="#e6abff"/></linearGradient><path fill="url(#Q18ZPihRMbck6weVbYCZRa)" d="M28.179,17.507c-0.397,0.426,0.001,1.112,0.563,0.962C30.496,18,31.446,18,33,18 c7.158,0,11.96,6.044,11.96,13.5c0,0.089-0.002,0.179-0.005,0.268c-0.057,1.59,1.578,2.836,2.92,1.982 c1.375-0.875,3.342-0.932,4.809-0.627c2.079,0.433,3.76,2.114,4.193,4.193C57.617,40.871,55,44,51.625,44c-0.875,0-4,0.5-7.625-3 c-4.07-3.929-6.639-7.168-9-9.75C34.151,30.321,30.875,27,30.875,27C27.743,24,23,21,17,21C8.163,21,2,27.268,2,35 c0,9,6.163,14,15,14c6.001,0,10.136-1.973,13.835-5.919c0.509-0.543-0.175-1.366-0.811-0.981C26.275,44.368,22.769,45,18,45 c-7,0-11-4.253-11-9.5s3.477-9.5,9-9.5c4,0,6.139,1.014,7.875,2.125c3.125,2,5.75,4.875,5.75,4.875L36,40 c4.419,5.524,9.967,9.827,16.948,8.865c4.983-0.687,9.002-4.835,9.051-9.865c0.06-6.126-3.887-11-9.999-11h-2 c0-7.422-5.828-13.861-13.25-13.998C33.15,13.936,30.234,15.304,28.179,17.507z"/><linearGradient id="Q18ZPihRMbck6weVbYCZRb" x1="32" x2="32" y1="13" y2="50" gradientUnits="userSpaceOnUse" spreadMethod="reflect"><stop offset="0" stop-color="#1a6dff"/><stop offset="1" stop-color="#c822ff"/></linearGradient><path fill="none" stroke="url(#Q18ZPihRMbck6weVbYCZRb)" stroke-miterlimit="10" stroke-width="2" d="M28.179,17.507 c-0.397,0.426,0.001,1.112,0.563,0.962C30.496,18,31.446,18,33,18c7.158,0,11.96,6.044,11.96,13.5c0,0.089-0.002,0.179-0.005,0.268 c-0.057,1.59,1.578,2.836,2.92,1.982c1.375-0.875,3.342-0.932,4.809-0.627c2.079,0.433,3.76,2.114,4.193,4.193 C57.617,40.871,55,44,51.625,44c-0.875,0-4,0.5-7.625-3c-4.07-3.929-6.639-7.168-9-9.75C34.151,30.321,30.875,27,30.875,27 C27.743,24,23,21,17,21C8.163,21,2,27.268,2,35c0,9,6.163,14,15,14c6.001,0,10.136-1.973,13.835-5.919 c0.509-0.543-0.175-1.366-0.811-0.981C26.275,44.368,22.769,45,18,45c-7,0-11-4.253-11-9.5s3.477-9.5,9-9.5 c4,0,6.139,1.014,7.875,2.125c3.125,2,5.75,4.875,5.75,4.875L36,40c4.419,5.524,9.967,9.827,16.948,8.865 c4.983-0.687,9.002-4.835,9.051-9.865c0.06-6.126-3.887-11-9.999-11h-2c0-7.422-5.828-13.861-13.25-13.998 C33.15,13.936,30.234,15.304,28.179,17.507z"/></svg>